
<svg width="640" height="640" viewBox="0 0 640 640" fill="none" xmlns="http://www.w3.org/2000/svg">
  <rect width="640" height="640" fill="transparent"/>
  <rect x="40" y="40" width="560" height="560" stroke="#000" stroke-width="4" fill="transparent"/>
  <path d="M40 40 L120 120 L200 40 L280 120 L360 40 L440 120 L520 40 L600 40" stroke="#000" stroke-width="2" fill="transparent"/>
  <path d="M40 600 L120 520 L200 600 L280 520 L360 600 L440 520 L520 600 L600 600" stroke="#000" stroke-width="2" fill="transparent"/>
  <path d="M40 40 L40 120 L120 200 L40 280 L40 360 L120 440 L40 520 L40 600" stroke="#000" stroke-width="2" fill="transparent"/>
  <path d="M600 40 L600 120 L520 200 L600 280 L600 360 L520 440 L600 520 L600 600" stroke="#000" stroke-width="2" fill="transparent"/>
</svg>
