
<svg width="640" height="640" viewBox="0 0 640 640" fill="none" xmlns="http://www.w3.org/2000/svg">
  <rect width="640" height="640" fill="transparent"/>
  <rect x="40" y="40" width="560" height="560" rx="0" stroke="#222" stroke-width="10" fill="transparent"/>
  <rect x="20" y="20" width="40" height="40" fill="#222"/>
  <rect x="20" y="580" width="40" height="40" fill="#222"/>
  <rect x="580" y="20" width="40" height="40" fill="#222"/>
  <rect x="580" y="580" width="40" height="40" fill="#222"/>
  <rect x="20" y="90" width="20" height="40" fill="#222"/>
  <rect x="20" y="160" width="20" height="40" fill="#222"/>
  <rect x="20" y="230" width="20" height="40" fill="#222"/>
  <rect x="20" y="300" width="20" height="40" fill="#222"/>
  <rect x="20" y="370" width="20" height="40" fill="#222"/>
  <rect x="20" y="440" width="20" height="40" fill="#222"/>
  <rect x="20" y="510" width="20" height="40" fill="#222"/>
  <rect x="600" y="90" width="20" height="40" fill="#222"/>
  <rect x="600" y="160" width="20" height="40" fill="#222"/>
  <rect x="600" y="230" width="20" height="40" fill="#222"/>
  <rect x="600" y="300" width="20" height="40" fill="#222"/>
  <rect x="600" y="370" width="20" height="40" fill="#222"/>
  <rect x="600" y="440" width="20" height="40" fill="#222"/>
  <rect x="600" y="510" width="20" height="40" fill="#222"/>
  <rect x="90" y="20" width="40" height="20" fill="#222"/>
  <rect x="160" y="20" width="40" height="20" fill="#222"/>
  <rect x="230" y="20" width="40" height="20" fill="#222"/>
  <rect x="300" y="20" width="40" height="20" fill="#222"/>
  <rect x="370" y="20" width="40" height="20" fill="#222"/>
  <rect x="440" y="20" width="40" height="20" fill="#222"/>
  <rect x="510" y="20" width="40" height="20" fill="#222"/>
  <rect x="90" y="600" width="40" height="20" fill="#222"/>
  <rect x="160" y="600" width="40" height="20" fill="#222"/>
  <rect x="230" y="600" width="40" height="20" fill="#222"/>
  <rect x="300" y="600" width="40" height="20" fill="#222"/>
  <rect x="370" y="600" width="40" height="20" fill="#222"/>
  <rect x="440" y="600" width="40" height="20" fill="#222"/>
  <rect x="510" y="600" width="40" height="20" fill="#222"/>
</svg>
