
<svg width="640" height="640" viewBox="0 0 640 640" fill="none" xmlns="http://www.w3.org/2000/svg">
  <rect width="640" height="640" fill="transparent"/>
  <path d="M40 40 C40 40, 20 100, 40 160 C60 220, 20 280, 40 340 C60 400, 20 460, 40 520 C60 580, 100 600, 160 600 C220 620, 280 580, 340 600 C400 620, 460 580, 520 600 C580 620, 600 580, 600 520 C620 460, 580 400, 600 340 C620 280, 580 220, 600 160 C620 100, 580 40, 520 40 C460 20, 400 60, 340 40 C280 20, 220 60, 160 40 C100 20, 40 40, 40 40 Z" 
        stroke="#000" stroke-width="3" fill="transparent"/>
</svg>
