
<svg width="640" height="640" viewBox="0 0 640 640" fill="none" xmlns="http://www.w3.org/2000/svg">
  <rect width="640" height="640" fill="transparent"/>
  <rect x="40" y="40" width="560" height="560" rx="20" stroke="#444" stroke-width="6" fill="transparent"/>
  <path d="M80 40 L100 80 L140 40" stroke="#444" stroke-width="3" fill="transparent"/>
  <path d="M260 40 L280 80 L320 40" stroke="#444" stroke-width="3" fill="transparent"/>
  <path d="M440 40 L460 80 L500 40" stroke="#444" stroke-width="3" fill="transparent"/>
  <path d="M80 600 L100 560 L140 600" stroke="#444" stroke-width="3" fill="transparent"/>
  <path d="M260 600 L280 560 L320 600" stroke="#444" stroke-width="3" fill="transparent"/>
  <path d="M440 600 L460 560 L500 600" stroke="#444" stroke-width="3" fill="transparent"/>
  <path d="M40 80 L80 100 L40 140" stroke="#444" stroke-width="3" fill="transparent"/>
  <path d="M40 260 L80 280 L40 320" stroke="#444" stroke-width="3" fill="transparent"/>
  <path d="M40 440 L80 460 L40 500" stroke="#444" stroke-width="3" fill="transparent"/>
  <path d="M600 80 L560 100 L600 140" stroke="#444" stroke-width="3" fill="transparent"/>
  <path d="M600 260 L560 280 L600 320" stroke="#444" stroke-width="3" fill="transparent"/>
  <path d="M600 440 L560 460 L600 500" stroke="#444" stroke-width="3" fill="transparent"/>
</svg>
