
<svg width="640" height="640" viewBox="0 0 640 640" fill="none" xmlns="http://www.w3.org/2000/svg">
  <rect width="640" height="640" fill="transparent"/>
  <rect x="40" y="40" width="80" height="80" stroke="#333" stroke-width="2" fill="transparent"/>
  <rect x="120" y="40" width="80" height="80" stroke="#333" stroke-width="2" fill="transparent"/>
  <rect x="200" y="40" width="80" height="80" stroke="#333" stroke-width="2" fill="transparent"/>
  <rect x="280" y="40" width="80" height="80" stroke="#333" stroke-width="2" fill="transparent"/>
  <rect x="360" y="40" width="80" height="80" stroke="#333" stroke-width="2" fill="transparent"/>
  <rect x="440" y="40" width="80" height="80" stroke="#333" stroke-width="2" fill="transparent"/>
  <rect x="520" y="40" width="80" height="80" stroke="#333" stroke-width="2" fill="transparent"/>
  
  <rect x="40" y="120" width="80" height="80" stroke="#333" stroke-width="2" fill="transparent"/>
  <rect x="520" y="120" width="80" height="80" stroke="#333" stroke-width="2" fill="transparent"/>
  
  <rect x="40" y="200" width="80" height="80" stroke="#333" stroke-width="2" fill="transparent"/>
  <rect x="520" y="200" width="80" height="80" stroke="#333" stroke-width="2" fill="transparent"/>
  
  <rect x="40" y="280" width="80" height="80" stroke="#333" stroke-width="2" fill="transparent"/>
  <rect x="520" y="280" width="80" height="80" stroke="#333" stroke-width="2" fill="transparent"/>
  
  <rect x="40" y="360" width="80" height="80" stroke="#333" stroke-width="2" fill="transparent"/>
  <rect x="520" y="360" width="80" height="80" stroke="#333" stroke-width="2" fill="transparent"/>
  
  <rect x="40" y="440" width="80" height="80" stroke="#333" stroke-width="2" fill="transparent"/>
  <rect x="520" y="440" width="80" height="80" stroke="#333" stroke-width="2" fill="transparent"/>
  
  <rect x="40" y="520" width="80" height="80" stroke="#333" stroke-width="2" fill="transparent"/>
  <rect x="120" y="520" width="80" height="80" stroke="#333" stroke-width="2" fill="transparent"/>
  <rect x="200" y="520" width="80" height="80" stroke="#333" stroke-width="2" fill="transparent"/>
  <rect x="280" y="520" width="80" height="80" stroke="#333" stroke-width="2" fill="transparent"/>
  <rect x="360" y="520" width="80" height="80" stroke="#333" stroke-width="2" fill="transparent"/>
  <rect x="440" y="520" width="80" height="80" stroke="#333" stroke-width="2" fill="transparent"/>
  <rect x="520" y="520" width="80" height="80" stroke="#333" stroke-width="2" fill="transparent"/>
</svg>
