
<svg width="640" height="640" viewBox="0 0 640 640" fill="none" xmlns="http://www.w3.org/2000/svg">
  <rect width="640" height="640" fill="transparent"/>
  <path d="M160 40 H320 V100 C320 120, 350 120, 350 100 V40 H480
           C480 40, 480 100, 520 100 C560 100, 560 40, 560 40 H600 V160 
           H540 C520 160, 520 190, 540 190 H600 V320 
           H540 C520 320, 520 350, 540 350 H600 V480
           C600 480, 540 480, 540 520 C540 560, 600 560, 600 560 V600 H480
           V540 C480 520, 450 520, 450 540 V600 H320
           V540 C320 520, 290 520, 290 540 V600 H160
           C160 600, 160 540, 120 540 C80 540, 80 600, 80 600 H40 V480
           H100 C120 480, 120 450, 100 450 H40 V320
           H100 C120 320, 120 290, 100 290 H40 V160
           C40 160, 100 160, 100 120 C100 80, 40 80, 40 80 V40 H160 Z" 
        stroke="#555" stroke-width="3" fill="transparent"/>
</svg>
