
<svg width="640" height="640" viewBox="0 0 640 640" fill="none" xmlns="http://www.w3.org/2000/svg">
  <rect width="640" height="640" fill="transparent"/>
  <path d="M80 40 C90 20, 110 20, 120 40 C130 20, 150 20, 160 40 C170 20, 190 20, 200 40 C210 20, 230 20, 240 40 C250 20, 270 20, 280 40
           C290 20, 310 20, 320 40 C330 20, 350 20, 360 40 C370 20, 390 20, 400 40 C410 20, 430 20, 440 40 C450 20, 470 20, 480 40
           C490 20, 510 20, 520 40 C530 20, 550 20, 560 40 
           C580 40, 600 60, 600 80 C620 90, 620 110, 600 120 C620 130, 620 150, 600 160 C620 170, 620 190, 600 200 C620 210, 620 230, 600 240
           C620 250, 620 270, 600 280 C620 290, 620 310, 600 320 C620 330, 620 350, 600 360 C620 370, 620 390, 600 400 C620 410, 620 430, 600 440
           C620 450, 620 470, 600 480 C620 490, 620 510, 600 520 C620 530, 620 550, 600 560
           C600 580, 580 600, 560 600 C550 620, 530 620, 520 600 C510 620, 490 620, 480 600 C470 620, 450 620, 440 600 C430 620, 410 620, 400 600
           C390 620, 370 620, 360 600 C350 620, 330 620, 320 600 C310 620, 290 620, 280 600 C270 620, 250 620, 240 600 C230 620, 210 620, 200 600
           C190 620, 170 620, 160 600 C150 620, 130 620, 120 600 C110 620, 90 620, 80 600
           C60 600, 40 580, 40 560 C20 550, 20 530, 40 520 C20 510, 20 490, 40 480 C20 470, 20 450, 40 440 C20 430, 20 410, 40 400
           C20 390, 20 370, 40 360 C20 350, 20 330, 40 320 C20 310, 20 290, 40 280 C20 270, 20 250, 40 240 C20 230, 20 210, 40 200
           C20 190, 20 170, 40 160 C20 150, 20 130, 40 120 C20 110, 20 90, 40 80 C40 60, 60 40, 80 40 Z" 
        stroke="#8a3a3a" stroke-width="3" fill="transparent"/>
</svg>
