
<svg width="640" height="640" viewBox="0 0 640 640" fill="none" xmlns="http://www.w3.org/2000/svg">
  <rect width="640" height="640" fill="transparent"/>
  <path d="M60 60 C60 60, 40 120, 60 180 C80 240, 40 300, 60 360 C80 420, 40 480, 60 540 
            L100 580 L140 540 
            C200 560, 260 520, 320 540 C380 560, 440 520, 500 540 C560 560, 580 520, 580 460 
            C600 400, 560 340, 580 280 C600 220, 560 160, 580 100 C600 40, 540 60, 480 60 
            C420 40, 360 80, 300 60 C240 40, 180 80, 120 60 C60 40, 60 60, 60 60 Z" 
        stroke="#000" stroke-width="3" fill="transparent"/>
</svg>
