
<svg width="640" height="640" viewBox="0 0 640 640" fill="none" xmlns="http://www.w3.org/2000/svg">
  <rect width="640" height="640" fill="transparent"/>
  <path d="M40 40 L80 30 L120 50 L160 30 L200 45 L240 25 L280 40 L320 25 L360 50 L400 30 L440 45 L480 25 L520 40 L560 30 L600 40
           L610 80 L590 120 L610 160 L595 200 L615 240 L600 280 L615 320 L590 360 L610 400 L595 440 L615 480 L600 520 L610 560 L600 600
           L560 610 L520 590 L480 610 L440 595 L400 615 L360 600 L320 615 L280 590 L240 610 L200 595 L160 615 L120 600 L80 610 L40 600
           L30 560 L50 520 L30 480 L45 440 L25 400 L40 360 L25 320 L50 280 L30 240 L45 200 L25 160 L40 120 L30 80 L40 40 Z" 
        stroke="#654321" stroke-width="3" fill="transparent"/>
</svg>
