
<svg width="640" height="640" viewBox="0 0 640 640" fill="none" xmlns="http://www.w3.org/2000/svg">
  <rect width="640" height="640" fill="transparent"/>
  <path d="M80 80 
           C90 80, 120 75, 140 80 
           C160 85, 180 75, 200 80 
           C220 85, 240 75, 260 80 
           C280 85, 300 75, 320 80 
           C340 85, 360 75, 380 80 
           C400 85, 420 75, 440 80 
           C460 85, 480 75, 500 80 
           C520 85, 540 75, 560 80
           L560 560
           C540 565, 520 555, 500 560 
           C480 565, 460 555, 440 560 
           C420 565, 400 555, 380 560 
           C360 565, 340 555, 320 560 
           C300 565, 280 555, 260 560 
           C240 565, 220 555, 200 560 
           C180 565, 160 555, 140 560 
           C120 565, 100 555, 80 560 Z" 
        fill="white" filter="drop-shadow(0px 4px 4px rgba(0, 0, 0, 0.15))"/>
</svg>
