
<svg width="640" height="640" viewBox="0 0 640 640" fill="none" xmlns="http://www.w3.org/2000/svg">
  <rect width="640" height="640" fill="transparent"/>
  <path d="M40 120 C20 160, 60 200, 30 240 C0 280, 40 320, 20 360 C0 400, 40 440, 30 480 C20 520, 60 560, 120 600
           C180 620, 240 580, 300 600 C360 620, 420 580, 480 600 C540 620, 600 560, 620 500
           C640 440, 600 380, 620 320 C640 260, 600 200, 620 140 C640 80, 580 20, 520 40
           C460 60, 400 20, 340 40 C280 60, 220 20, 160 40 C100 60, 60 80, 40 120 Z" 
        stroke="#4682B4" stroke-width="3" fill="transparent"/>
  <path d="M80 160 C60 200, 100 240, 70 280 C40 320, 80 360, 60 400 C40 440, 80 480, 70 520 C60 560, 100 580, 140 580
           C180 600, 220 560, 260 580 C300 600, 340 560, 380 580 C420 600, 460 560, 500 580 C540 600, 580 560, 600 520
           C620 480, 580 440, 600 400 C620 360, 580 320, 600 280 C620 240, 580 200, 600 160 C620 120, 580 80, 540 80
           C500 80, 460 60, 420 80 C380 100, 340 60, 300 80 C260 100, 220 60, 180 80 C140 100, 100 120, 80 160 Z" 
        stroke="#4682B4" stroke-width="2" fill="transparent"/>
</svg>
