
<svg width="640" height="640" viewBox="0 0 640 640" fill="none" xmlns="http://www.w3.org/2000/svg">
  <rect width="640" height="640" fill="transparent"/>
  <path d="M40 40 L80 80 L40 120 L80 160 L40 200 L80 240 L40 280 L80 320 L40 360 L80 400 L40 440 L80 480 L40 520 L80 560 L40 600
          L80 600 L120 560 L160 600 L200 560 L240 600 L280 560 L320 600 L360 560 L400 600 L440 560 L480 600 L520 560 L560 600 L600 560 L600 600
          L560 560 L600 520 L560 480 L600 440 L560 400 L600 360 L560 320 L600 280 L560 240 L600 200 L560 160 L600 120 L560 80 L600 40
          L560 40 L520 80 L480 40 L440 80 L400 40 L360 80 L320 40 L280 80 L240 40 L200 80 L160 40 L120 80 L80 40 Z" 
        stroke="#666" stroke-width="3" fill="transparent"/>
</svg>
